<?xml version="1.0" encoding="UTF-8" standalone="no"?>
<!-- Created with Inkscape (http://www.inkscape.org/) -->
<svg
   xmlns:dc="http://purl.org/dc/elements/1.1/"
   xmlns:cc="http://creativecommons.org/ns#"
   xmlns:rdf="http://www.w3.org/1999/02/22-rdf-syntax-ns#"
   xmlns:svg="http://www.w3.org/2000/svg"
   xmlns="http://www.w3.org/2000/svg"
   xmlns:sodipodi="http://sodipodi.sourceforge.net/DTD/sodipodi-0.dtd"
   xmlns:inkscape="http://www.inkscape.org/namespaces/inkscape"
   width="765"
   height="990"
   id="svg3610"
   sodipodi:version="0.32"
   inkscape:version="0.46+devel"
   version="1.0"
   sodipodi:docname="person-one.svg"
   inkscape:output_extension="org.inkscape.output.svg.inkscape">
  <title
     id="title3635">Person Outline</title>
  <defs
     id="defs3612">
    <inkscape:perspective
       sodipodi:type="inkscape:persp3d"
       inkscape:vp_x="0 : 526.18109 : 1"
       inkscape:vp_y="0 : 1000 : 0"
       inkscape:vp_z="744.09448 : 526.18109 : 1"
       inkscape:persp3d-origin="372.04724 : 350.78739 : 1"
       id="perspective3618" />
    <inkscape:perspective
       id="perspective3602"
       inkscape:persp3d-origin="0.5 : 0.33333333 : 1"
       inkscape:vp_z="1 : 0.5 : 1"
       inkscape:vp_y="0 : 1000 : 0"
       inkscape:vp_x="0 : 0.5 : 1"
       sodipodi:type="inkscape:persp3d" />
  </defs>
  <sodipodi:namedview
     id="base"
     pagecolor="#ffffff"
     bordercolor="#666666"
     borderopacity="1.0"
     inkscape:pageopacity="0.0"
     inkscape:pageshadow="2"
     inkscape:zoom="0.35"
     inkscape:cx="743.57143"
     inkscape:cy="508.57143"
     inkscape:document-units="px"
     inkscape:current-layer="layer1"
     showgrid="false"
     showguides="true"
     inkscape:guide-bbox="true"
     inkscape:window-width="778"
     inkscape:window-height="716"
     inkscape:window-x="0"
     inkscape:window-y="18" />
  <metadata
     id="metadata3615">
    <rdf:RDF>
      <cc:Work
         rdf:about="">
        <dc:format>image/svg+xml</dc:format>
        <dc:type
           rdf:resource="http://purl.org/dc/dcmitype/StillImage" />
        <dc:title>Person Outline</dc:title>
        <dc:contributor>
          <cc:Agent>
            <dc:title>Fabricatorz, Lu Fang, Jon Phillips</dc:title>
          </cc:Agent>
        </dc:contributor>
        <cc:license
           rdf:resource="http://creativecommons.org/licenses/publicdomain/" />
      </cc:Work>
      <cc:License
         rdf:about="http://creativecommons.org/licenses/publicdomain/">
        <cc:permits
           rdf:resource="http://creativecommons.org/ns#Reproduction" />
        <cc:permits
           rdf:resource="http://creativecommons.org/ns#Distribution" />
        <cc:permits
           rdf:resource="http://creativecommons.org/ns#DerivativeWorks" />
      </cc:License>
    </rdf:RDF>
  </metadata>
  <g
     inkscape:label="Layer 1"
     inkscape:groupmode="layer"
     id="layer1">
    <path
       d="m 490.89753,500.67834 c 0,0 -2.49454,9.11633 -2.49454,9.11633 0,0 -4.95873,9.10614 -4.95873,9.10614 0,0 -1.60757,3.21008 -2.82204,5.63402 -0.73551,1.46641 -1.32537,2.64064 -1.32537,2.64064 0,0 2.4895,-15.72805 2.4895,-15.72805 0,0 0.82183,2.47955 0.82183,-14.90642 0,-17.39088 0.83644,-52.99931 0.83644,-52.99931 0,0 -3.31595,-26.49703 -3.31595,-26.49703 0,0 0,-20.70692 0,-20.70692 0,0 13.25356,38.0978 13.25356,38.0978 0,0 0.82183,21.52834 0.82183,21.52834 0,0 -3.30585,44.71446 -3.30585,44.71446 z m -207.4666,-38.43543 c -1.28006,6.15819 -0.88687,7.10549 -0.37785,9.97295 2.48435,14.07495 -2.56518,26.8096 -2.56518,26.8096 0,0 0,13.2485 0,13.2485 0,0 -4.97385,-4.9688 -4.97385,-4.9688 0,0 -1.64783,-9.93268 -1.64783,-9.93268 0,0 0.81624,-24.84415 0.81624,-24.84415 0,0 2.23241,-35.98628 2.23241,-35.98628 0,0 5.74995,20.32889 5.74995,20.32889 0,0 2.04596,-0.75122 0.76578,5.37197 z M 543.0804,381.43132 c 0,0 -4.13734,-35.60341 -4.13734,-35.60341 0,0 -15.738,-27.32356 -4.14238,-35.60818 11.59565,-8.27983 8.27972,-3.31102 0.82632,-14.07508 -7.45326,-10.76414 -8.28473,-27.3286 -14.90653,-45.55108 -6.63189,-18.21238 -18.39872,-20.86302 -18.95315,-22.24388 -0.55388,-1.38075 -8.56192,-11.32352 -10.76911,-14.09018 -2.20728,-2.76152 -53.3017,-32.58961 -53.3017,-32.58961 0,0 -6.6267,-1.10327 -9.9477,-2.20731 -3.31089,-1.10324 -9.38846,-5.51818 -9.38846,-5.51818 0,0 -1.09876,0.82183 -6.34954,-1.10887 -5.24599,-1.93508 -8.56191,-6.62683 -8.56191,-6.62683 0,0 -0.82633,-21.5484 0.27693,-25.40857 1.10325,-3.8651 2.48444,-10.76921 5.24596,-11.32353 2.76161,-0.55386 3.03878,-8.83402 4.14754,-14.92156 1.10324,-6.06747 -1.38593,-8.55183 -2.48951,-8.55183 -1.10325,0 -1.38592,-1.93518 -1.38592,-1.93518 0,0 -1.10324,-6.354718 0.83194,-9.116217 1.93518,-2.756463 0.82633,-17.400995 0.27694,-23.196348 -0.5494,-5.800266 -4.69669,-6.909018 -4.69669,-6.909018 0,0 -4.96883,-7.453173 -4.96883,-7.453173 0,0 -9.11118,-8.284855 -9.11118,-8.284855 0,0 -5.52312,-4.419528 -5.52312,-4.419528 0,0 -5.52818,-3.593106 -5.52818,-3.593106 0,0 -10.76921,-1.930016 -18.49964,-1.657907 -7.73557,0.281416 -19.60836,9.116227 -27.6209,16.574523 -8.0076,7.453272 -7.73559,19.331146 -7.73559,19.331146 0,0 -0.82631,13.807865 -0.82631,13.807865 0,0 1.38086,7.181151 1.38086,7.181151 0,0 -4.48524,12.664017 -4.48524,12.664017 0,0 0,11.59566 0,11.59566 0,0 5.80051,0.82633 5.80051,0.82633 0,0 2.4793,9.10611 2.4793,9.10611 0,0 6.62684,16.56445 6.62684,16.56445 0,0 -1.6579,27.31864 -1.6579,27.31864 0,0 -8.27983,1.65793 -8.27983,1.65793 0,0 -6.62683,4.97386 -6.62683,4.97386 0,0 -13.25356,9.93759 -13.25356,9.93759 0,0 -11.60058,9.1113 -31.47591,19.87547 -19.88051,10.76404 -29.82821,25.67058 -37.28148,49.68327 -7.45832,24.01784 -25.6808,42.2302 -25.6808,42.2302 0,0 9.11118,5.79526 9.11118,5.79526 0,0 11.6008,11.59563 11.6008,11.59563 0,0 4.14226,44.71458 0,54.65713 -4.14236,9.93279 -1.65803,32.28744 -1.65803,63.75843 0,31.47109 8.27983,37.2613 8.27983,37.2613 0,0 4.97373,46.38246 4.97373,46.38246 0,0 0,33.11891 0,33.11891 0,0 4.97385,21.53327 4.97385,21.53327 0,0 18.21745,13.24861 18.21745,13.24861 0,0 13.25871,10.76406 13.25871,10.76406 0,0 8.28464,84.46032 10.76415,136.63299 2.49446,52.17287 19.0589,123.38447 19.0589,123.38447 0,0 -0.82632,0.83191 -7.45832,4.14247 -6.62673,3.31079 5.79536,11.59553 5.79536,11.59553 0,0 7.45832,9.93774 7.45832,9.93774 0,0 -15.73803,10.76404 -20.70695,15.72792 -4.96879,4.96879 -4.14731,8.28474 -4.14731,8.28474 0,0 4.97385,4.1323 4.97385,4.1323 0,0 -11.59563,13.25859 -11.59563,13.25859 0,0 -6.62684,15.72804 -8.2899,23.18119 -1.64771,7.45327 11.60079,16.5695 28.17029,17.39603 16.56938,0.82186 25.67563,-6.62682 33.96542,-10.76921 8.27982,-4.13732 9.10625,-19.04386 9.10625,-19.04386 0,0 2.48951,-16.56444 2.48951,-16.56444 0,0 13.25356,-5.79031 13.25356,-5.79031 0,0 9.9376,-7.45821 9.9376,-7.45821 0,0 2.48952,-13.24862 2.48952,-13.24862 0,0 0,-8.27971 0,-8.27971 0,0 7.44822,-4.9688 7.44822,-4.9688 0,0 3.31594,-8.2797 3.31594,-8.2797 0,0 -4.96892,-13.25365 -4.96892,-13.25365 0,0 -4.14238,-48.03041 -4.14238,-48.03041 0,0 -1.65286,-120.07358 -1.65286,-120.07358 0,0 4.14236,-43.88297 4.14236,-43.88297 0,0 4.96377,-67.07929 4.96377,-67.07929 0,0 4.14238,47.1989 4.14238,47.1989 0,0 8.28979,20.70684 8.28979,20.70684 0,0 7.44822,23.18621 7.44822,23.18621 0,0 6.63188,92.74499 2.4894,127.5218 -4.14226,34.78683 5.80039,56.31011 5.80039,56.31011 0,0 2.47941,4.97397 2.47941,4.97397 0,0 1.65791,9.93257 1.65791,9.93257 0,0 4.14238,9.11117 4.14238,9.11117 0,0 12.4221,10.76417 12.4221,10.76417 0,0 -4.1323,8.28475 -4.1323,8.28475 0,0 9.1113,10.76416 9.1113,10.76416 0,0 5.80029,4.96882 5.80029,4.96882 0,0 2.48446,16.55939 2.48446,16.55939 0,0 12.42207,20.70695 12.42207,20.70695 0,0 8.28474,4.96374 24.85424,5.79019 16.56457,0.83194 21.53832,-6.62178 21.53832,-6.62178 0,0 8.27981,-16.56447 8.27981,-16.56447 0,0 -8.27981,-33.94523 -8.27981,-33.94523 0,0 -8.28464,-12.4222 -8.28464,-12.4222 0,0 -13.25368,-8.28475 -13.25368,-8.28475 0,0 4.96882,-9.11117 4.96882,-9.11117 0,0 0,-18.21742 0,-18.21742 0,0 -6.62685,-1.65289 -6.62685,-1.65289 0,0 4.13241,-11.59059 4.13241,-11.59059 0,0 2.49444,-37.26634 2.49444,-37.26634 0,0 -6.62685,-25.67069 -3.31091,-33.12387 3.31091,-7.44822 -1.65791,-67.07436 0.81624,-92.74495 2.49456,-25.67574 -10.759,-72.86962 -10.759,-72.86962 0,0 42.24513,-27.3286 42.24513,-27.3286 0,0 19.05406,-33.95534 19.05406,-33.95534 0,0 -2.48456,-11.5906 -2.48456,-11.5906 0,0 -5.80029,-24.01772 -5.80029,-24.01772 0,0 9.11118,-73.69605 9.11118,-73.69605 0,0 3.3109,-52.17782 3.3109,-52.17782 z"
       style="fill:#2e3436;fill-opacity:1;fill-rule:nonzero;stroke:none"
       id="path3443" />
  </g>
</svg>
